<svg preserveAspectRatio="none" width="100%" height="100%" overflow="visible" style="display: block;" viewBox="0 0 130.982 141.55" fill="none" xmlns="http://www.w3.org/2000/svg">
<g id="FACEBBOK ICON" filter="url(#filter0_d_0_11)">
<g id="Vector" filter="url(#filter1_d_0_11)">
<path d="M67.2403 74.5326C67.1333 74.5369 67.0649 74.5454 66.9965 74.5454C65.5339 74.5454 64.0756 74.5412 62.613 74.5497C62.4077 74.5497 62.3521 74.4941 62.3521 74.2888C62.3564 70.8847 62.3564 67.4762 62.3564 64.0721C62.3564 63.9823 62.3564 63.8925 62.3564 63.777C61.561 63.777 60.7869 63.777 60 63.777C60 62.5625 60 61.3693 60 60.1419C60.0813 60.1419 60.1582 60.1419 60.2309 60.1419C60.8724 60.1419 61.5139 60.1376 62.1554 60.1462C62.3179 60.1462 62.3607 60.0991 62.3607 59.9409C62.3521 58.9872 62.3521 58.0293 62.3607 57.0756C62.365 56.4084 62.4719 55.7584 62.7798 55.1554C63.2203 54.3044 63.9174 53.7527 64.7983 53.4106C65.5168 53.1283 66.2738 53.0257 67.035 53.0128C68.2752 52.9957 69.5154 53.0043 70.7556 53C70.8711 53 70.9652 52.9957 70.9652 53.1582C70.9609 54.3343 70.9609 55.5104 70.9609 56.6864C70.9609 56.6993 70.9566 56.7121 70.9395 56.7677C70.8668 56.7677 70.7855 56.7677 70.7043 56.7677C69.9345 56.7677 69.1647 56.7634 68.3949 56.7677C67.9502 56.7677 67.5909 56.9473 67.3643 57.3365C67.2959 57.4519 67.2531 57.6016 67.2531 57.7385C67.2403 58.4655 67.2531 59.1925 67.2445 59.9195C67.2445 60.0906 67.2959 60.1376 67.4626 60.1376C68.5318 60.1291 69.6009 60.1334 70.6701 60.1334C70.7556 60.1334 70.8369 60.1334 70.9823 60.1334C70.8326 61.3565 70.6872 62.5539 70.5375 63.7642C69.4256 63.7642 68.3436 63.7642 67.2403 63.7642C67.2403 67.3608 67.2403 70.936 67.2403 74.5326Z" fill="var(--fill-0, white)"/>
</g>
</g>
<defs>
<filter id="filter0_d_0_11" x="10" y="7" width="110.982" height="121.55" filterUnits="userSpaceOnUse" color-interpolation-filters="sRGB">
<feFlood flood-opacity="0" result="BackgroundImageFix"/>
<feColorMatrix in="SourceAlpha" type="matrix" values="0 0 0 0 0 0 0 0 0 0 0 0 0 0 0 0 0 0 127 0" result="hardAlpha"/>
<feOffset dy="4"/>
<feGaussianBlur stdDeviation="25"/>
<feComposite in2="hardAlpha" operator="out"/>
<feColorMatrix type="matrix" values="0 0 0 0 0 0 0 0 0 0 0 0 0 0 0 0 0 0 0.25 0"/>
<feBlend mode="normal" in2="BackgroundImageFix" result="effect1_dropShadow_0_11"/>
<feBlend mode="normal" in="SourceGraphic" in2="effect1_dropShadow_0_11" result="shape"/>
</filter>
<filter id="filter1_d_0_11" x="9.83477e-07" y="0" width="130.982" height="141.55" filterUnits="userSpaceOnUse" color-interpolation-filters="sRGB">
<feFlood flood-opacity="0" result="BackgroundImageFix"/>
<feColorMatrix in="SourceAlpha" type="matrix" values="0 0 0 0 0 0 0 0 0 0 0 0 0 0 0 0 0 0 127 0" result="hardAlpha"/>
<feOffset dy="7"/>
<feGaussianBlur stdDeviation="30"/>
<feComposite in2="hardAlpha" operator="out"/>
<feColorMatrix type="matrix" values="0 0 0 0 0 0 0 0 0 0 0 0 0 0 0 0 0 0 0.25 0"/>
<feBlend mode="normal" in2="BackgroundImageFix" result="effect1_dropShadow_0_11"/>
<feBlend mode="normal" in="SourceGraphic" in2="effect1_dropShadow_0_11" result="shape"/>
</filter>
</defs>
</svg>
