<svg preserveAspectRatio="none" width="100%" height="100%" overflow="visible" style="display: block;" viewBox="0 0 55 55" fill="none" xmlns="http://www.w3.org/2000/svg">
<g id="parcel_delivery_icon_215893 1" clip-path="url(#clip0_0_14)">
<path id="Vector" d="M50.672 14.8225L33.4845 5.36938C33.2308 5.22982 32.9459 5.15664 32.6562 5.15664C32.3666 5.15664 32.0817 5.22982 31.828 5.36938L14.6405 14.8225C14.371 14.9709 14.1463 15.1888 13.9898 15.4537C13.8333 15.7185 13.7507 16.0205 13.7507 16.3281C13.7507 16.6357 13.8333 16.9377 13.9898 17.2026C14.1463 17.4674 14.371 17.6854 14.6405 17.8338L30.9375 26.7975V45.2179L25.719 42.3488L24.0625 45.3599L31.828 49.6306C32.0817 49.7704 32.3666 49.8437 32.6562 49.8437C32.9459 49.8437 33.2308 49.7704 33.4845 49.6306L50.672 40.1775C50.9416 40.0292 51.1665 39.8113 51.3231 39.5464C51.4798 39.2816 51.5624 38.9796 51.5625 38.6719V16.3281C51.5624 16.0204 51.4798 15.7184 51.3231 15.4536C51.1665 15.1887 50.9416 14.9708 50.672 14.8225ZM32.6562 8.83713L46.277 16.3281L32.6562 23.8191L19.0355 16.3281L32.6562 8.83713ZM48.125 37.6556L34.375 45.2181V26.7975L48.125 19.235V37.6556Z" fill="var(--fill-0, white)"/>
<path id="Vector_2" d="M3.4375 27.5H17.1875V24.0625H3.4375V27.5Z" fill="var(--fill-0, white)"/>
<path id="Vector_3" d="M6.875 41.25H20.625V37.8125H6.875V41.25Z" fill="var(--fill-0, white)"/>
<path id="Vector_4" d="M10.3125 34.375H24.0625V30.9375H10.3125V34.375Z" fill="var(--fill-0, white)"/>
<g id="&#60;Transparent Rectangle&#62;">
</g>
</g>
<defs>
<clipPath id="clip0_0_14">
<rect width="55" height="55" fill="white"/>
</clipPath>
</defs>
</svg>
