<svg preserveAspectRatio="none" width="100%" height="100%" overflow="visible" style="display: block;" viewBox="0 0 39 39" fill="none" xmlns="http://www.w3.org/2000/svg">
<g id="Vector">
<mask id="path-1-inside-1_0_7" fill="white">
<path d="M37.6651 28.2358L32.8079 23.3357C32.0051 22.5324 30.9212 22.0505 29.9177 22.0505C28.8339 22.0505 27.8705 22.4923 27.0275 23.3357L24.2175 26.1473C24.0971 26.0669 23.9365 25.9866 23.8161 25.9464C23.8161 25.9464 23.776 25.9464 23.776 25.9063L23.7358 25.8661C23.3745 25.6251 22.9731 25.3841 22.4914 25.1833C20.0428 23.6571 17.7547 21.5283 15.4264 18.6766C14.3426 17.311 13.5799 16.1061 12.9778 14.7806C13.62 14.2585 14.1017 13.7364 14.463 13.3347L15.7074 12.0896C16.6708 11.206 17.1525 10.2019 17.1525 9.15757C17.1525 8.07312 16.6708 7.069 15.7476 6.10505L11.9341 2.28939C11.5728 1.92791 11.2115 1.56643 10.8101 1.20494C10.0072 0.441813 9.0037 0 7.96001 0C6.79589 0 5.83248 0.401648 4.94936 1.28527L2.01899 4.2173C0.854869 5.30175 0.172455 6.66735 0.0118867 8.35427V8.39444C-0.0683973 10.483 0.252737 12.4109 1.13586 14.8208C2.54083 18.5963 4.66836 22.1308 7.83958 26.0268C11.9742 30.6859 16.6307 34.3007 21.809 36.7909L21.9294 36.8311C23.4548 37.5139 26.3451 38.7992 29.5564 39H29.998C32.1255 39 33.7312 38.3172 35.0559 36.8713C35.5376 36.309 36.0594 35.7868 36.501 35.3048C36.8623 35.0237 37.1031 34.7425 37.344 34.4614L37.6651 34.1401L37.7454 34.0597C39.4314 32.2122 39.4314 29.9629 37.6651 28.2358ZM36.2601 32.6941L35.8587 33.0958L35.8186 33.1761C35.6179 33.4171 35.4573 33.6179 35.2566 33.7786L35.1362 33.8991C34.6545 34.3811 34.0925 34.9434 33.5305 35.586C32.6072 36.5901 31.5635 37.0319 29.998 37.0319H29.6768C26.8669 36.8311 24.2978 35.7065 22.7724 35.0237L22.6921 34.9835C17.7547 32.6138 13.2989 29.1596 9.40512 24.7415C6.35433 21.0463 4.34723 17.6725 3.02254 14.138C2.2197 11.9289 1.9387 10.3223 2.01899 8.51493C2.13941 7.35016 2.58098 6.42637 3.38382 5.7034L6.35433 2.7312C6.83603 2.24923 7.31773 2.0484 7.91986 2.0484C8.44171 2.0484 8.92342 2.28939 9.36498 2.69104L9.40512 2.7312C9.7664 3.05252 10.1277 3.41401 10.489 3.77549L14.3024 7.59114C15.025 8.31411 15.1454 8.87642 15.1454 9.19773C15.1454 9.51905 15.0651 10.001 14.3024 10.6838L13.0179 11.9691C12.5763 12.4511 12.0545 12.9732 11.3721 13.5355L11.2918 13.6159L11.2115 13.7364C10.8502 14.2183 10.8101 14.6601 11.0108 15.3028L11.0509 15.4634L11.0911 15.6241C11.7735 17.1102 12.6165 18.4758 13.8207 20.0021C16.3095 23.0546 18.7984 25.344 21.4477 26.9907L21.5682 27.0711C21.8893 27.2317 22.2104 27.3924 22.4914 27.553C22.6118 27.6735 22.7724 27.7539 22.8928 27.794C23.0534 27.8744 23.1738 27.9145 23.2541 27.9949L23.5351 28.1957H23.6154L23.7358 28.2358C23.9767 28.3162 24.1372 28.3162 24.2577 28.3162C24.6591 28.3162 25.0204 28.1555 25.3816 27.794L28.3923 24.7817C28.874 24.2997 29.3156 24.0989 29.8776 24.0989C30.4797 24.0989 31.0417 24.4604 31.3628 24.7817L36.2601 29.6818C37.2235 30.6457 37.2637 31.6498 36.2601 32.6941Z"/>
</mask>
<path d="M37.6651 28.2358L32.8079 23.3357C32.0051 22.5324 30.9212 22.0505 29.9177 22.0505C28.8339 22.0505 27.8705 22.4923 27.0275 23.3357L24.2175 26.1473C24.0971 26.0669 23.9365 25.9866 23.8161 25.9464C23.8161 25.9464 23.776 25.9464 23.776 25.9063L23.7358 25.8661C23.3745 25.6251 22.9731 25.3841 22.4914 25.1833C20.0428 23.6571 17.7547 21.5283 15.4264 18.6766C14.3426 17.311 13.5799 16.1061 12.9778 14.7806C13.62 14.2585 14.1017 13.7364 14.463 13.3347L15.7074 12.0896C16.6708 11.206 17.1525 10.2019 17.1525 9.15757C17.1525 8.07312 16.6708 7.069 15.7476 6.10505L11.9341 2.28939C11.5728 1.92791 11.2115 1.56643 10.8101 1.20494C10.0072 0.441813 9.0037 0 7.96001 0C6.79589 0 5.83248 0.401648 4.94936 1.28527L2.01899 4.2173C0.854869 5.30175 0.172455 6.66735 0.0118867 8.35427V8.39444C-0.0683973 10.483 0.252737 12.4109 1.13586 14.8208C2.54083 18.5963 4.66836 22.1308 7.83958 26.0268C11.9742 30.6859 16.6307 34.3007 21.809 36.7909L21.9294 36.8311C23.4548 37.5139 26.3451 38.7992 29.5564 39H29.998C32.1255 39 33.7312 38.3172 35.0559 36.8713C35.5376 36.309 36.0594 35.7868 36.501 35.3048C36.8623 35.0237 37.1031 34.7425 37.344 34.4614L37.6651 34.1401L37.7454 34.0597C39.4314 32.2122 39.4314 29.9629 37.6651 28.2358ZM36.2601 32.6941L35.8587 33.0958L35.8186 33.1761C35.6179 33.4171 35.4573 33.6179 35.2566 33.7786L35.1362 33.8991C34.6545 34.3811 34.0925 34.9434 33.5305 35.586C32.6072 36.5901 31.5635 37.0319 29.998 37.0319H29.6768C26.8669 36.8311 24.2978 35.7065 22.7724 35.0237L22.6921 34.9835C17.7547 32.6138 13.2989 29.1596 9.40512 24.7415C6.35433 21.0463 4.34723 17.6725 3.02254 14.138C2.2197 11.9289 1.9387 10.3223 2.01899 8.51493C2.13941 7.35016 2.58098 6.42637 3.38382 5.7034L6.35433 2.7312C6.83603 2.24923 7.31773 2.0484 7.91986 2.0484C8.44171 2.0484 8.92342 2.28939 9.36498 2.69104L9.40512 2.7312C9.7664 3.05252 10.1277 3.41401 10.489 3.77549L14.3024 7.59114C15.025 8.31411 15.1454 8.87642 15.1454 9.19773C15.1454 9.51905 15.0651 10.001 14.3024 10.6838L13.0179 11.9691C12.5763 12.4511 12.0545 12.9732 11.3721 13.5355L11.2918 13.6159L11.2115 13.7364C10.8502 14.2183 10.8101 14.6601 11.0108 15.3028L11.0509 15.4634L11.0911 15.6241C11.7735 17.1102 12.6165 18.4758 13.8207 20.0021C16.3095 23.0546 18.7984 25.344 21.4477 26.9907L21.5682 27.0711C21.8893 27.2317 22.2104 27.3924 22.4914 27.553C22.6118 27.6735 22.7724 27.7539 22.8928 27.794C23.0534 27.8744 23.1738 27.9145 23.2541 27.9949L23.5351 28.1957H23.6154L23.7358 28.2358C23.9767 28.3162 24.1372 28.3162 24.2577 28.3162C24.6591 28.3162 25.0204 28.1555 25.3816 27.794L28.3923 24.7817C28.874 24.2997 29.3156 24.0989 29.8776 24.0989C30.4797 24.0989 31.0417 24.4604 31.3628 24.7817L36.2601 29.6818C37.2235 30.6457 37.2637 31.6498 36.2601 32.6941Z" fill="var(--fill-0, #D9D9D9)"/>
<path d="M37.6651 28.2358L34.1141 31.7558L34.1415 31.7835L34.1694 31.8108L37.6651 28.2358ZM32.8079 23.3357L36.359 19.8158L36.3517 19.8085L36.3445 19.8012L32.8079 23.3357ZM27.0275 23.3357L30.564 26.8703L30.564 26.8703L27.0275 23.3357ZM24.2175 26.1473L21.4429 30.3068L24.8548 32.5827L27.7541 29.6818L24.2175 26.1473ZM23.8161 25.9464L25.3981 21.2033L24.6279 20.9464L23.816 20.9464L23.8161 25.9464ZM23.776 25.9063H28.776V23.836L27.3125 22.3718L23.776 25.9063ZM23.7358 25.8661L27.2724 22.3316L26.9223 21.9814L26.5104 21.7066L23.7358 25.8661ZM22.4914 25.1833L19.8466 29.4265L20.1919 29.6418L20.5674 29.7983L22.4914 25.1833ZM15.4264 18.6766L11.51 21.785L11.5315 21.812L11.5533 21.8388L15.4264 18.6766ZM12.9778 14.7806L9.82372 10.9009L6.82937 13.3352L8.42549 16.8487L12.9778 14.7806ZM14.463 13.3347L10.9265 9.80017L10.8335 9.89317L10.7456 9.99093L14.463 13.3347ZM15.7074 12.0896L12.3278 8.40478L12.2477 8.47822L12.1709 8.55507L15.7074 12.0896ZM15.7476 6.10505L19.3585 2.64654L19.3217 2.60813L19.2841 2.57051L15.7476 6.10505ZM11.9341 2.28939L8.39753 5.82392V5.82392L11.9341 2.28939ZM10.8101 1.20494L7.36532 4.82897L7.41415 4.87538L7.46422 4.92047L10.8101 1.20494ZM4.94936 1.28527L1.41282 -2.24926L1.41282 -2.24926L4.94936 1.28527ZM2.01899 4.2173L5.42711 7.87581L5.49243 7.81497L5.55552 7.75183L2.01899 4.2173ZM0.0118867 8.35427L-4.96562 7.8805L-4.98811 8.11685V8.35427H0.0118867ZM0.0118867 8.39444L5.0082 8.5865L5.01189 8.4905V8.39444H0.0118867ZM1.13586 14.8208L-3.55884 16.5412L-3.55454 16.5529L-3.55019 16.5646L1.13586 14.8208ZM7.83958 26.0268L3.96181 29.1832L4.02908 29.2658L4.09982 29.3455L7.83958 26.0268ZM21.809 36.7909L19.6421 41.297L19.9271 41.434L20.2271 41.5341L21.809 36.7909ZM21.9294 36.8311L23.9722 32.2674L23.7462 32.1663L23.5114 32.0879L21.9294 36.8311ZM29.5564 39L29.2443 43.9903L29.4002 44H29.5564V39ZM35.0559 36.8713L38.7426 40.2488L38.7989 40.1874L38.8531 40.1242L35.0559 36.8713ZM36.501 35.3048L33.4302 31.3589L33.0983 31.6172L32.8143 31.9273L36.501 35.3048ZM37.344 34.4614L33.8074 30.9268L33.6717 31.0627L33.5468 31.2085L37.344 34.4614ZM37.6651 34.1401L41.2016 37.6746L41.2017 37.6745L37.6651 34.1401ZM37.7454 34.0597L41.282 37.5942L41.3622 37.5139L41.4388 37.43L37.7454 34.0597ZM36.2601 32.6941L39.7967 36.2287L39.8313 36.194L39.8653 36.1587L36.2601 32.6941ZM35.8587 33.0958L32.3222 29.5612L31.7487 30.135L31.3861 30.8607L35.8587 33.0958ZM35.8186 33.1761L39.6606 36.376L40.0319 35.9301L40.2912 35.4112L35.8186 33.1761ZM35.2566 33.7786L32.132 29.8751L31.9158 30.0482L31.72 30.244L35.2566 33.7786ZM33.5305 35.586L37.2111 38.9702L37.2533 38.9244L37.2943 38.8775L33.5305 35.586ZM29.6768 37.0319L29.3204 42.0192L29.4984 42.0319H29.6768V37.0319ZM22.7724 35.0237L20.5354 39.4953L20.6315 39.5434L20.7296 39.5873L22.7724 35.0237ZM22.6921 34.9835L24.9292 30.5119L24.8925 30.4935L24.8556 30.4758L22.6921 34.9835ZM9.40512 24.7415L5.54942 27.9248L5.60073 27.987L5.65401 28.0474L9.40512 24.7415ZM3.02254 14.138L-1.67674 15.8459L-1.6682 15.8693L-1.65943 15.8927L3.02254 14.138ZM2.01899 8.51493L-2.9545 8.00073L-2.96958 8.14657L-2.97609 8.29306L2.01899 8.51493ZM3.38382 5.7034L6.72969 9.41893L6.8274 9.33094L6.92035 9.23793L3.38382 5.7034ZM6.35433 2.7312L2.81779 -0.803327L2.81779 -0.803326L6.35433 2.7312ZM9.36498 2.69104L12.9015 -0.843475L12.8174 -0.927641L12.7294 -1.00771L9.36498 2.69104ZM9.40512 2.7312L5.86857 6.26572L5.97245 6.36966L6.08225 6.46732L9.40512 2.7312ZM10.489 3.77549L6.95242 7.31002L6.95242 7.31002L10.489 3.77549ZM14.3024 7.59114L17.839 4.05661L17.839 4.05661L14.3024 7.59114ZM14.3024 10.6838L10.9674 6.95856L10.864 7.05114L10.7659 7.1493L14.3024 10.6838ZM13.0179 11.9691L9.48137 8.43457L9.40457 8.51142L9.33118 8.59152L13.0179 11.9691ZM11.3721 13.5355L8.19247 9.67676L8.00618 9.83027L7.83554 10.001L11.3721 13.5355ZM11.2918 13.6159L7.75526 10.0813L7.40532 10.4315L7.13083 10.8434L11.2918 13.6159ZM11.2115 13.7364L15.2123 16.7353L15.2955 16.6242L15.3725 16.5088L11.2115 13.7364ZM11.0108 15.3028L15.8617 14.0907L15.8266 13.9503L15.7834 13.8122L11.0108 15.3028ZM11.0509 15.4634L15.9018 14.2514L15.9018 14.2514L11.0509 15.4634ZM11.0911 15.6241L6.24021 16.8361L6.35303 17.2877L6.54725 17.7106L11.0911 15.6241ZM13.8207 20.0021L9.89548 23.0992L9.92026 23.1306L9.94554 23.1616L13.8207 20.0021ZM21.4477 26.9907L24.2224 22.8312L24.1555 22.7866L24.0872 22.7442L21.4477 26.9907ZM21.5682 27.0711L18.7935 31.2306L19.0526 31.4034L19.3311 31.5427L21.5682 27.0711ZM22.4914 27.553L26.028 24.0185L25.5545 23.5448L24.9732 23.2124L22.4914 27.553ZM22.8928 27.794L25.1299 23.3224L24.812 23.1633L24.4748 23.0509L22.8928 27.794ZM23.2541 27.9949L19.7176 31.5294L20.0101 31.8221L20.3468 32.0627L23.2541 27.9949ZM23.5351 28.1957L20.6278 32.2636L21.932 33.1957H23.5351V28.1957ZM23.6154 28.1957L25.1973 23.4525L24.4272 23.1957H23.6154V28.1957ZM23.7358 28.2358L25.3178 23.4927L25.3177 23.4927L23.7358 28.2358ZM25.3816 27.794L28.9182 31.3286H28.9182L25.3816 27.794ZM28.3923 24.7817L24.8558 21.2471H24.8558L28.3923 24.7817ZM37.6651 28.2358L41.2162 24.7159L36.359 19.8158L32.8079 23.3357L29.2569 26.8557L34.1141 31.7558L37.6651 28.2358ZM32.8079 23.3357L36.3445 19.8012C34.7384 18.1943 32.4268 17.0505 29.9177 17.0505V22.0505V27.0505C29.6323 27.0505 29.4644 26.9863 29.4064 26.9605C29.3429 26.9322 29.3043 26.9032 29.2714 26.8703L32.8079 23.3357ZM29.9177 22.0505V17.0505C27.3088 17.0505 25.1214 18.1699 23.4909 19.8012L27.0275 23.3357L30.564 26.8703C30.6198 26.8144 30.579 26.8715 30.4271 26.9395C30.2628 27.0132 30.0775 27.0505 29.9177 27.0505V22.0505ZM27.0275 23.3357L23.4909 19.8012L20.681 22.6127L24.2175 26.1473L27.7541 29.6818L30.564 26.8703L27.0275 23.3357ZM24.2175 26.1473L26.9921 21.9877C26.5526 21.6946 25.9944 21.4022 25.3981 21.2033L23.8161 25.9464L22.2342 30.6896C22.0111 30.6152 21.8575 30.5423 21.7797 30.5034C21.6936 30.4603 21.5803 30.3984 21.4429 30.3068L24.2175 26.1473ZM23.8161 25.9464C23.816 20.9464 23.8185 20.9464 23.8209 20.9464C23.8217 20.9465 23.8242 20.9465 23.8258 20.9465C23.8291 20.9465 23.8324 20.9465 23.8357 20.9465C23.8423 20.9465 23.849 20.9466 23.8557 20.9466C23.8691 20.9467 23.8828 20.9469 23.8966 20.9471C23.9243 20.9475 23.9528 20.9482 23.9823 20.9492C24.041 20.9512 24.1039 20.9543 24.1707 20.9591C24.3027 20.9685 24.4584 20.9849 24.6322 21.0139C24.9561 21.0679 25.4644 21.1853 26.0331 21.4698C26.6215 21.7641 27.3615 22.284 27.9432 23.1571C28.5457 24.0613 28.776 25.042 28.776 25.9063H23.776H18.776C18.776 26.7907 19.0113 27.7864 19.6213 28.7019C20.2105 29.5863 20.9606 30.1137 21.559 30.4131C22.1377 30.7026 22.656 30.8225 22.9874 30.8777C23.165 30.9073 23.3239 30.9241 23.458 30.9337C23.5259 30.9385 23.5898 30.9417 23.6491 30.9437C23.6788 30.9447 23.7076 30.9453 23.7354 30.9458C23.7493 30.946 23.763 30.9462 23.7764 30.9463C23.7832 30.9463 23.7899 30.9464 23.7965 30.9464C23.7998 30.9464 23.8031 30.9464 23.8064 30.9464C23.808 30.9464 23.8105 30.9464 23.8113 30.9464C23.8137 30.9464 23.8162 30.9464 23.8161 25.9464ZM23.776 25.9063L27.3125 22.3718L27.2724 22.3316L23.7358 25.8661L20.1993 29.4007L20.2394 29.4408L23.776 25.9063ZM23.7358 25.8661L26.5104 21.7066C26.0028 21.368 25.3048 20.9391 24.4154 20.5683L22.4914 25.1833L20.5674 29.7983C20.6414 29.8292 20.7462 29.8822 20.9612 30.0256L23.7358 25.8661ZM22.4914 25.1833L25.1362 20.9401C23.2802 19.7832 21.3894 18.0742 19.2995 15.5145L15.4264 18.6766L11.5533 21.8388C14.12 24.9824 16.8053 27.5309 19.8466 29.4265L22.4914 25.1833ZM15.4264 18.6766L19.3428 15.5683C18.4544 14.4488 17.9287 13.5901 17.53 12.7126L12.9778 14.7806L8.42549 16.8487C9.23112 18.6221 10.2308 20.1732 11.51 21.785L15.4264 18.6766ZM12.9778 14.7806L16.1318 18.6603C17.0853 17.8852 17.7768 17.1273 18.1804 16.6785L14.463 13.3347L10.7456 9.99093C10.4267 10.3454 10.1548 10.6318 9.82372 10.9009L12.9778 14.7806ZM14.463 13.3347L17.9995 16.8692L19.244 15.6241L15.7074 12.0896L12.1709 8.55507L10.9265 9.80017L14.463 13.3347ZM15.7074 12.0896L19.0871 15.7744C20.8531 14.1547 22.1525 11.8871 22.1525 9.15757H17.1525H12.1525C12.1525 8.88756 12.2198 8.65028 12.3004 8.4855C12.3743 8.33465 12.4224 8.318 12.3278 8.40478L15.7074 12.0896ZM17.1525 9.15757H22.1525C22.1525 6.42636 20.8903 4.24586 19.3585 2.64654L15.7476 6.10505L12.1366 9.56355C12.3048 9.73915 12.3054 9.78674 12.2626 9.69465C12.2401 9.64624 12.2106 9.56968 12.1876 9.4687C12.1644 9.36674 12.1525 9.26051 12.1525 9.15757H17.1525ZM15.7476 6.10505L19.2841 2.57051L15.4706 -1.24514L11.9341 2.28939L8.39753 5.82392L12.211 9.63958L15.7476 6.10505ZM11.9341 2.28939L15.4706 -1.24514C15.121 -1.59498 14.67 -2.04771 14.156 -2.51058L10.8101 1.20494L7.46422 4.92047C7.75304 5.18056 8.02462 5.4508 8.39753 5.82392L11.9341 2.28939ZM10.8101 1.20494L14.2549 -2.41908C12.6503 -3.9443 10.4518 -5 7.96001 -5V0V5C7.76913 5 7.61464 4.95855 7.51061 4.91409C7.41016 4.87117 7.36704 4.83061 7.36532 4.82897L10.8101 1.20494ZM7.96001 0V-5C5.40796 -5 3.18942 -4.02687 1.41282 -2.24926L4.94936 1.28527L8.48589 4.8198C8.54479 4.76087 8.48398 4.83696 8.303 4.91379C8.21924 4.94934 8.13721 4.97309 8.06614 4.98674C7.99694 5.00004 7.95788 5 7.96001 5V0ZM4.94936 1.28527L1.41282 -2.24926L-1.51755 0.68277L2.01899 4.2173L5.55552 7.75183L8.48589 4.8198L4.94936 1.28527ZM2.01899 4.2173L-1.38914 0.558795C-3.46514 2.49272 -4.69132 4.99879 -4.96562 7.8805L0.0118867 8.35427L4.98939 8.82805C5.03623 8.33592 5.17488 8.11078 5.42711 7.87581L2.01899 4.2173ZM0.0118867 8.35427H-4.98811V8.39444H0.0118867H5.01189V8.35427H0.0118867ZM0.0118867 8.39444L-4.98442 8.20238C-5.09347 11.0391 -4.63008 13.618 -3.55884 16.5412L1.13586 14.8208L5.83056 13.1004C5.13556 11.2039 4.95667 9.92689 5.0082 8.5865L0.0118867 8.39444ZM1.13586 14.8208L-3.55019 16.5646C-1.91039 20.9712 0.536497 24.975 3.96181 29.1832L7.83958 26.0268L11.7174 22.8704C8.80023 19.2866 6.99206 16.2214 5.82192 13.077L1.13586 14.8208ZM7.83958 26.0268L4.09982 29.3455C8.62463 34.4443 13.8014 38.4882 19.6421 41.297L21.809 36.7909L23.9759 32.2849C19.46 30.1132 15.3238 26.9274 11.5793 22.708L7.83958 26.0268ZM21.809 36.7909L20.2271 41.5341L20.3475 41.5743L21.9294 36.8311L23.5114 32.0879L23.3909 32.0478L21.809 36.7909ZM21.9294 36.8311L19.8866 41.3948C21.3936 42.0693 25.0308 43.7268 29.2443 43.9903L29.5564 39L29.8685 34.0098C27.6593 33.8716 25.5161 32.9585 23.9722 32.2674L21.9294 36.8311ZM29.5564 39V44H29.998V39V34H29.5564V39ZM29.998 39V44C33.4141 44 36.3968 42.8093 38.7426 40.2488L35.0559 36.8713L31.3692 33.4937C31.1386 33.7454 30.9846 33.8288 30.8843 33.8711C30.7718 33.9186 30.5187 34 29.998 34V39ZM35.0559 36.8713L38.8531 40.1242C39.2872 39.6174 39.5216 39.4095 40.1877 38.6824L36.501 35.3048L32.8143 31.9273C32.5972 32.1642 31.788 33.0005 31.2587 33.6184L35.0559 36.8713ZM36.501 35.3048L39.5718 39.2508C40.3736 38.6268 40.903 37.9922 41.1412 37.7143L37.344 34.4614L33.5468 31.2085C33.4827 31.2833 33.447 31.3248 33.4142 31.3619C33.3849 31.3951 33.3713 31.4094 33.3674 31.4135C33.3644 31.4166 33.3706 31.41 33.3838 31.398C33.3974 31.3856 33.4133 31.3721 33.4302 31.3589L36.501 35.3048ZM37.344 34.4614L40.8805 37.9959L41.2016 37.6746L37.6651 34.1401L34.1286 30.6055L33.8074 30.9268L37.344 34.4614ZM37.6651 34.1401L41.2017 37.6745L41.282 37.5942L37.7454 34.0597L34.2088 30.5253L34.1285 30.6056L37.6651 34.1401ZM37.7454 34.0597L41.4388 37.43C42.965 35.7575 44.0245 33.5563 43.9996 31.0529C43.9744 28.5208 42.8447 26.3074 41.1608 24.6609L37.6651 28.2358L34.1694 31.8108C34.2226 31.8628 34.1776 31.8348 34.1176 31.7044C34.0546 31.5675 34.0023 31.3748 34.0001 31.1523C33.9953 30.6672 34.2118 30.5144 34.052 30.6894L37.7454 34.0597ZM36.2601 32.6941L32.7236 29.1596L32.3222 29.5612L35.8587 33.0958L39.3952 36.6303L39.7967 36.2287L36.2601 32.6941ZM35.8587 33.0958L31.3861 30.8607L31.3459 30.9411L35.8186 33.1761L40.2912 35.4112L40.3314 35.3308L35.8587 33.0958ZM35.8186 33.1761L31.9766 29.9763C31.9494 30.0088 31.9191 30.0455 31.8996 30.0689C31.8772 30.0958 31.8607 30.1156 31.8466 30.1324C31.8173 30.1673 31.8123 30.1724 31.8202 30.1637C31.8368 30.1452 31.9473 30.023 32.132 29.8751L35.2566 33.7786L38.3811 37.6821C39.0698 37.1308 39.5963 36.4532 39.6606 36.376L35.8186 33.1761ZM35.2566 33.7786L31.72 30.244L31.5996 30.3645L35.1362 33.8991L38.6727 37.4336L38.7931 37.3131L35.2566 33.7786ZM35.1362 33.8991L31.5996 30.3645C31.1269 30.8376 30.453 31.5097 29.7667 32.2945L33.5305 35.586L37.2943 38.8775C37.732 38.377 38.1821 37.9245 38.6727 37.4336L35.1362 33.8991ZM33.5305 35.586L29.8499 32.2018C29.8138 32.2409 29.8222 32.2252 29.8762 32.1861C29.9341 32.1442 30.0116 32.0991 30.0984 32.0633C30.1829 32.0285 30.2357 32.0191 30.234 32.0194C30.2272 32.0206 30.1565 32.0319 29.998 32.0319V37.0319V42.0319C31.2506 42.0319 32.5852 41.8549 33.9118 41.3077C35.2648 40.7495 36.3399 39.9177 37.2111 38.9702L33.5305 35.586ZM29.998 37.0319V32.0319H29.6768V37.0319V42.0319H29.998V37.0319ZM29.6768 37.0319L30.0333 32.0446C28.1976 31.9135 26.3537 31.1487 24.8152 30.46L22.7724 35.0237L20.7296 39.5873C22.2419 40.2643 25.5362 41.7488 29.3204 42.0192L29.6768 37.0319ZM22.7724 35.0237L25.0095 30.552L24.9292 30.5119L22.6921 34.9835L20.4551 39.4552L20.5354 39.4953L22.7724 35.0237ZM22.6921 34.9835L24.8556 30.4758C20.5792 28.4234 16.6502 25.4001 13.1562 21.4356L9.40512 24.7415L5.65401 28.0474C9.94757 32.9192 14.9301 36.8042 20.5287 39.4912L22.6921 34.9835ZM9.40512 24.7415L13.2608 21.5582C10.4895 18.2015 8.7982 15.3014 7.70451 12.3833L3.02254 14.138L-1.65943 15.8927C-0.103753 20.0436 2.21914 23.8912 5.54942 27.9248L9.40512 24.7415ZM3.02254 14.138L7.72182 12.4301C7.08501 10.6779 6.96967 9.73619 7.01406 8.73681L2.01899 8.51493L-2.97609 8.29306C-3.09226 10.9085 -2.64561 13.18 -1.67674 15.8459L3.02254 14.138ZM2.01899 8.51493L6.99248 9.02914C7.00181 8.93884 7.00853 8.99261 6.94678 9.12029C6.91734 9.18117 6.87985 9.24292 6.8365 9.30024C6.79344 9.35716 6.75462 9.39648 6.72969 9.41893L3.38382 5.7034L0.0379464 1.98787C-1.78817 3.63231 -2.72173 5.74931 -2.9545 8.00073L2.01899 8.51493ZM3.38382 5.7034L6.92035 9.23793L9.89086 6.26574L6.35433 2.7312L2.81779 -0.803326L-0.152719 2.16887L3.38382 5.7034ZM6.35433 2.7312L9.89086 6.26574C9.78344 6.37321 9.51361 6.60968 9.07334 6.79971C8.61819 6.99616 8.20067 7.0484 7.91986 7.0484V2.0484V-2.9516C5.88751 -2.9516 4.16136 -2.14765 2.81779 -0.803327L6.35433 2.7312ZM7.91986 2.0484V7.0484C6.79645 7.0484 6.13215 6.50948 6.00057 6.38979L9.36498 2.69104L12.7294 -1.00771C11.7147 -1.9307 10.087 -2.9516 7.91986 -2.9516V2.0484ZM9.36498 2.69104L5.82843 6.22556L5.86857 6.26572L9.40512 2.7312L12.9417 -0.80331L12.9015 -0.843475L9.36498 2.69104ZM9.40512 2.7312L6.08225 6.46732C6.31396 6.6734 6.5695 6.92688 6.95242 7.31002L10.489 3.77549L14.0255 0.240958C13.6859 -0.0988689 13.2188 -0.568352 12.728 -1.00491L9.40512 2.7312ZM10.489 3.77549L6.95242 7.31002L10.7659 11.1257L14.3024 7.59114L17.839 4.05661L14.0255 0.240957L10.489 3.77549ZM14.3024 7.59114L10.7659 11.1257C10.7666 11.1264 10.5929 10.9518 10.4254 10.5748C10.248 10.1755 10.1454 9.70113 10.1454 9.19773H15.1454H20.1454C20.1454 7.37281 19.3648 5.58328 17.839 4.05661L14.3024 7.59114ZM15.1454 9.19773H10.1454C10.1454 9.06027 10.1543 8.8193 10.2111 8.52463C10.2684 8.22656 10.3614 7.94161 10.4833 7.68168C10.7234 7.16986 10.9874 6.94067 10.9674 6.95856L14.3024 10.6838L17.6375 14.4091C18.3802 13.7442 19.0657 12.9326 19.5366 11.9288C20.0429 10.8495 20.1454 9.87987 20.1454 9.19773H15.1454ZM14.3024 10.6838L10.7659 7.1493L9.48137 8.43457L13.0179 11.9691L16.5544 15.5036L17.839 14.2184L14.3024 10.6838ZM13.0179 11.9691L9.33118 8.59152C9.01081 8.94121 8.65753 9.29355 8.19247 9.67676L11.3721 13.5355L14.5517 17.3943C15.4515 16.6529 16.1419 15.961 16.7046 15.3467L13.0179 11.9691ZM11.3721 13.5355L7.83554 10.001L7.75526 10.0813L11.2918 13.6159L14.8283 17.1504L14.9086 17.0701L11.3721 13.5355ZM11.2918 13.6159L7.13083 10.8434L7.05054 10.9639L11.2115 13.7364L15.3725 16.5088L15.4528 16.3883L11.2918 13.6159ZM11.2115 13.7364L7.21069 10.7374C6.61588 11.531 6.09094 12.5719 5.93599 13.8639C5.79068 15.0755 6.02239 16.1025 6.23816 16.7934L11.0108 15.3028L15.7834 13.8122C15.7985 13.8604 15.9499 14.3452 15.8648 15.0547C15.7701 15.8446 15.4459 16.4237 15.2123 16.7353L11.2115 13.7364ZM11.0108 15.3028L6.15993 16.5148L6.20007 16.6755L11.0509 15.4634L15.9018 14.2514L15.8617 14.0907L11.0108 15.3028ZM11.0509 15.4634L6.20007 16.6755L6.24021 16.8361L11.0911 15.6241L15.942 14.4121L15.9018 14.2514L11.0509 15.4634ZM11.0911 15.6241L6.54725 17.7106C7.41466 19.5996 8.47659 21.3009 9.89548 23.0992L13.8207 20.0021L17.746 16.9049C16.7564 15.6507 16.1323 14.6208 15.6349 13.5376L11.0911 15.6241ZM13.8207 20.0021L9.94554 23.1616C12.6891 26.5266 15.5779 29.2294 18.8082 31.2373L21.4477 26.9907L24.0872 22.7442C22.0188 21.4585 19.93 19.5825 17.6959 16.8425L13.8207 20.0021ZM21.4477 26.9907L18.6731 31.1502L18.7935 31.2306L21.5682 27.0711L24.3428 22.9116L24.2224 22.8312L21.4477 26.9907ZM21.5682 27.0711L19.3311 31.5427C19.6825 31.7185 19.8722 31.8151 20.0097 31.8936L22.4914 27.553L24.9732 23.2124C24.5486 22.9697 24.0961 22.7449 23.8052 22.5994L21.5682 27.0711ZM22.4914 27.553L18.9549 31.0876C19.7786 31.9118 20.6938 32.3314 21.3109 32.5372L22.8928 27.794L24.4748 23.0509C24.7128 23.1302 24.9454 23.2324 25.1739 23.363C25.3988 23.4917 25.7078 23.6982 26.028 24.0185L22.4914 27.553ZM22.8928 27.794L20.6558 32.2657C20.7665 32.321 20.8616 32.3651 20.8992 32.3826C20.9604 32.411 20.9163 32.391 20.8665 32.3661C20.7798 32.3227 20.2531 32.0652 19.7176 31.5294L23.2541 27.9949L26.7907 24.4603C26.1749 23.8442 25.5478 23.5264 25.3407 23.4228C25.2307 23.3678 25.1213 23.3176 25.1123 23.3134C25.0796 23.2982 25.0995 23.3072 25.1299 23.3224L22.8928 27.794ZM23.2541 27.9949L20.3468 32.0627L20.6278 32.2636L23.5351 28.1957L26.4424 24.1278L26.1614 23.927L23.2541 27.9949ZM23.5351 28.1957V33.1957H23.6154V28.1957V23.1957H23.5351V28.1957ZM23.6154 28.1957L22.0335 32.9388L22.1539 32.979L23.7358 28.2358L25.3177 23.4927L25.1973 23.4525L23.6154 28.1957ZM23.7358 28.2358L22.1539 32.979C23.1474 33.3103 23.935 33.3162 24.2577 33.3162V28.3162V23.3162C24.2045 23.3162 24.3932 23.313 24.6265 23.3404C24.8753 23.3697 25.1094 23.4232 25.3178 23.4927L23.7358 28.2358ZM24.2577 28.3162V33.3162C26.2477 33.3162 27.8222 32.4252 28.9182 31.3286L25.3816 27.794L21.8451 24.2595C21.9893 24.1153 22.2841 23.8602 22.7462 23.6477C23.2335 23.4237 23.7574 23.3162 24.2577 23.3162V28.3162ZM25.3816 27.794L28.9182 31.3286L31.9288 28.3162L28.3923 24.7817L24.8558 21.2471L21.8451 24.2595L25.3816 27.794ZM28.3923 24.7817L31.9288 28.3162C31.8811 28.364 31.6352 28.5998 31.1891 28.8044C30.7046 29.0266 30.233 29.0989 29.8776 29.0989V24.0989V19.0989C27.7331 19.0989 26.0774 20.0249 24.8558 21.2471L28.3923 24.7817ZM29.8776 24.0989V29.0989C29.1905 29.0989 28.7003 28.8996 28.4536 28.7738C28.2034 28.6462 28.0042 28.4942 27.8263 28.3162L31.3628 24.7817L34.8993 21.2471C34.0805 20.4278 32.3206 19.0989 29.8776 19.0989V24.0989ZM31.3628 24.7817L27.8263 28.3162L32.7236 33.2163L36.2601 29.6818L39.7967 26.1472L34.8993 21.2471L31.3628 24.7817ZM36.2601 29.6818L32.7236 33.2163C32.6546 33.1473 32.0105 32.4619 31.998 31.2078C31.9855 29.9532 32.6163 29.2699 32.655 29.2296L36.2601 32.6941L39.8653 36.1587C40.9075 35.0741 42.0201 33.3665 41.9975 31.1079C41.9749 28.8497 40.8291 27.1802 39.7967 26.1472L36.2601 29.6818Z" fill="var(--stroke-0, #D9D9D9)" mask="url(#path-1-inside-1_0_7)"/>
</g>
</svg>
