<svg preserveAspectRatio="none" width="100%" height="100%" overflow="visible" style="display: block;" viewBox="0 0 51 51" fill="none" xmlns="http://www.w3.org/2000/svg">
<g id="martini_glass_citrus_icon_198984 1" clip-path="url(#clip0_0_12)">
<path id="Vector" d="M25.4996 46.2188H21.2496V33.7377L36.1954 16.9336C37.5678 15.3896 36.5939 12.75 34.6548 12.75H2.18039C0.243189 12.75 -0.730769 15.3896 0.641627 16.9336L15.5786 33.7377V46.2188H11.3329C9.76841 46.2188 8.49961 47.6462 8.49961 49.4062C8.49961 50.2864 9.13392 51 9.83659 51H26.7569C27.5393 51 28.0939 50.2864 28.0939 49.4062C28.3329 47.6432 27.0668 46.2188 25.4996 46.2188ZM38.2496 0C32.7042 0 28.0319 4.00928 26.2876 9.5625H30.9361C32.4076 6.72363 35.1197 4.78125 38.2514 4.78125C42.9335 4.78125 46.6717 9.06445 46.6717 14.3438C46.6717 19.623 42.8538 23.9062 38.2514 23.9062C37.0118 23.9062 35.8386 23.5825 34.7655 23.0471L31.6444 26.5583C33.5817 27.8782 35.828 28.688 38.2514 28.688C45.2904 28.688 50.9217 22.2632 50.9217 14.3442C50.9217 6.4253 45.2887 0 38.2496 0Z" fill="var(--fill-0, white)"/>
</g>
<defs>
<clipPath id="clip0_0_12">
<rect width="51" height="51" fill="white"/>
</clipPath>
</defs>
</svg>
