<svg preserveAspectRatio="none" width="100%" height="100%" overflow="visible" style="display: block;" viewBox="0 0 57 57" fill="none" xmlns="http://www.w3.org/2000/svg">
<g id="game_rewards_medal_badge_award_icon_133763 1">
<path id="Vector" d="M28.5 25.3341C31.1234 25.3341 33.25 23.2075 33.25 20.5841C33.25 17.9608 31.1234 15.8341 28.5 15.8341C25.8766 15.8341 23.75 17.9608 23.75 20.5841C23.75 23.2075 25.8766 25.3341 28.5 25.3341Z" fill="var(--fill-0, white)"/>
<path id="Vector_2" d="M44.9588 28.3195C46.2723 25.5441 46.8628 22.4816 46.6751 19.4167C46.4874 16.3519 45.5278 13.3843 43.8854 10.7899C42.243 8.19548 39.9712 6.05853 37.2812 4.57777C34.5913 3.09701 31.5706 2.32052 28.5 2.32052C25.4294 2.32052 22.4087 3.09701 19.7188 4.57777C17.0288 6.05853 14.757 8.19548 13.1146 10.7899C11.4722 13.3843 10.5126 16.3519 10.3249 19.4167C10.1372 22.4816 10.7277 25.5441 12.0413 28.3195L2.9545 38.8218C2.6735 39.147 2.48602 39.5423 2.41203 39.9657C2.33805 40.3891 2.38034 40.8246 2.5344 41.2258C2.68846 41.6271 2.94851 41.979 3.28683 42.2441C3.62515 42.5091 4.02906 42.6774 4.4555 42.731L13.1765 43.8235L14.269 52.5445C14.3278 53.014 14.5255 53.4552 14.8368 53.8115C15.148 54.1679 15.5586 54.4232 16.0159 54.5446C16.4731 54.6661 16.9563 54.6482 17.4033 54.4933C17.8504 54.3383 18.241 54.0534 18.525 53.675L28.5 40.375L38.475 53.675C38.759 54.0534 39.1496 54.3383 39.5967 54.4933C40.0437 54.6482 40.5269 54.6661 40.9841 54.5446C41.4414 54.4232 41.852 54.1679 42.1632 53.8115C42.4745 53.4552 42.6722 53.014 42.731 52.5445L43.8235 43.8235L52.5445 42.731C52.9709 42.6774 53.3749 42.5091 53.7132 42.2441C54.0515 41.979 54.3115 41.6271 54.4656 41.2258C54.6197 40.8246 54.662 40.3891 54.588 39.9657C54.514 39.5423 54.3265 39.147 54.0455 38.8218L44.9588 28.3195ZM18.2519 46.1225L17.6629 41.401C17.5977 40.8763 17.3592 40.3885 16.9854 40.0146C16.6116 39.6408 16.1237 39.4023 15.599 39.3371L9.4525 38.57L14.725 32.4686C14.7392 32.4876 14.7582 32.4995 14.7725 32.5161C15.985 33.908 17.4006 35.109 18.9715 36.0786L19.0261 36.1095C20.5687 37.0541 22.2443 37.7618 23.997 38.209C24.0469 38.2232 24.0944 38.247 24.1443 38.2589L18.2519 46.1225ZM31.6184 33.6633C31.293 33.7393 30.9653 33.8034 30.6328 33.8556C30.4523 33.8841 30.2741 33.9174 30.0889 33.9388C29.034 34.0749 27.966 34.0749 26.9111 33.9388C26.7259 33.9174 26.5478 33.8841 26.3673 33.8556C26.0348 33.8034 25.707 33.7393 25.3816 33.6633C25.1655 33.611 24.9518 33.5588 24.7404 33.497C24.4554 33.4139 24.1775 33.3165 23.8996 33.2144C23.6218 33.1123 23.3415 33.0077 23.0708 32.889C22.7216 32.7346 22.3772 32.5708 22.0447 32.3879C21.8072 32.2644 21.6054 32.1243 21.3892 31.9889C21.1731 31.8535 20.9499 31.711 20.7385 31.559C20.5271 31.407 20.3561 31.2811 20.1709 31.1339C19.8882 30.8964 19.6128 30.6731 19.3491 30.4214C19.2518 30.3311 19.1496 30.248 19.057 30.1554C18.6712 29.7721 18.3088 29.366 17.9716 28.9394C17.9431 28.9061 17.9194 28.8681 17.8909 28.8325C17.5589 28.4025 17.252 27.9537 16.9717 27.4883C15.7415 25.4464 15.0756 23.1144 15.0422 20.7307C15.0088 18.3471 15.6091 15.9973 16.7817 13.9218C17.9543 11.8462 19.6572 10.1194 21.7161 8.91781C23.775 7.71624 26.1161 7.08308 28.5 7.08308C30.8839 7.08308 33.225 7.71624 35.2839 8.91781C37.3428 10.1194 39.0457 11.8462 40.2183 13.9218C41.3909 15.9973 41.9912 18.3471 41.9578 20.7307C41.9244 23.1144 41.2585 25.4464 40.0283 27.4883C39.748 27.9537 39.4411 28.4025 39.1091 28.8325C39.0806 28.8681 39.0569 28.9061 39.0284 28.9394C38.6912 29.366 38.3288 29.7721 37.943 30.1554C37.8504 30.248 37.7459 30.3335 37.6485 30.4238C37.3849 30.6613 37.1118 30.8988 36.8291 31.1363C36.6439 31.2835 36.4539 31.4236 36.2615 31.5614C36.0691 31.6991 35.8316 31.8535 35.6108 31.9913C35.3899 32.129 35.1809 32.2667 34.9553 32.3902C34.6228 32.5731 34.2784 32.737 33.9293 32.8914C33.6585 33.0101 33.3806 33.1146 33.1004 33.2168C32.8201 33.3189 32.5446 33.4162 32.2596 33.4994C32.0483 33.5587 31.825 33.611 31.6184 33.6633ZM41.401 39.3371C40.8763 39.4023 40.3885 39.6408 40.0146 40.0146C39.6408 40.3885 39.4023 40.8763 39.3371 41.401L38.7481 46.1225L32.8486 38.2565C32.8985 38.2565 32.946 38.2209 32.9959 38.2066C34.7485 37.7594 36.4242 37.0517 37.9668 36.1071L38.0214 36.0762C39.5922 35.1067 41.0078 33.9057 42.2204 32.5137C42.2346 32.4971 42.2536 32.4853 42.2679 32.4663L47.5475 38.57L41.401 39.3371Z" fill="var(--fill-0, white)"/>
</g>
</svg>
