<svg preserveAspectRatio="none" width="100%" height="100%" overflow="visible" style="display: block;" viewBox="0 0 63 63" fill="none" xmlns="http://www.w3.org/2000/svg">
<g id="truck_delivery_icon_217691 1">
<path id="Vector" d="M21 49.875C23.8995 49.875 26.25 47.5246 26.25 44.625C26.25 41.7254 23.8995 39.375 21 39.375C18.1005 39.375 15.75 41.7254 15.75 44.625C15.75 47.5246 18.1005 49.875 21 49.875Z" stroke="var(--stroke-0, white)" stroke-width="4" stroke-miterlimit="1.5" stroke-linecap="round" stroke-linejoin="round"/>
<path id="Vector_2" d="M47.25 49.875C50.1496 49.875 52.5 47.5246 52.5 44.625C52.5 41.7254 50.1496 39.375 47.25 39.375C44.3504 39.375 42 41.7254 42 44.625C42 47.5246 44.3504 49.875 47.25 49.875Z" stroke="var(--stroke-0, white)" stroke-width="4" stroke-miterlimit="1.5" stroke-linecap="round" stroke-linejoin="round"/>
<path id="Vector_3" d="M26.3813 44.625H39.375V17.325C39.375 16.4552 38.6699 15.75 37.8 15.75H2.625" stroke="var(--stroke-0, white)" stroke-width="4" stroke-linecap="round"/>
<path id="Vector_4" d="M14.8313 44.625H9.45C8.58015 44.625 7.875 43.9199 7.875 43.05V30.1875" stroke="var(--stroke-0, white)" stroke-width="4" stroke-linecap="round"/>
<path id="Vector_5" d="M5.25 23.625H15.75" stroke="var(--stroke-0, white)" stroke-width="4" stroke-linecap="round" stroke-linejoin="round"/>
<path id="Vector_6" d="M39.375 23.625H54.1015C54.7239 23.625 55.288 23.9916 55.5408 24.5603L60.2393 35.132C60.3288 35.3336 60.375 35.5514 60.375 35.7717V43.05C60.375 43.9199 59.6699 44.625 58.8 44.625H53.8125" stroke="var(--stroke-0, white)" stroke-width="4" stroke-linecap="round"/>
<path id="Vector_7" d="M39.375 44.625H42" stroke="var(--stroke-0, white)" stroke-width="1.5" stroke-linecap="round"/>
</g>
</svg>
