<svg preserveAspectRatio="none" width="100%" height="100%" overflow="visible" style="display: block;" viewBox="0 0 59.0283 47.9605" fill="none" xmlns="http://www.w3.org/2000/svg">
<g id="Group">
<path id="Vector" d="M31.3588 7.37853V3.68927H35.048C36.0663 3.68927 36.8927 2.86287 36.8927 1.84463C36.8927 0.826396 36.0663 0 35.048 0H23.9802C22.962 0 22.1356 0.826396 22.1356 1.84463C22.1356 2.86287 22.962 3.68927 23.9802 3.68927H27.6695C27.6695 3.68927 27.6566 7.52977 27.6695 7.37853C12.2336 8.33591 0 21.2152 0 36.8927C0 38.3905 0 37.7191 0 38.7373C0 39.7555 0.826396 40.5819 1.84463 40.5819H57.1836C58.2019 40.5819 59.0283 39.7555 59.0283 38.7373C59.0283 37.7191 59.0283 38.5067 59.0283 36.8927C59.0283 21.2152 46.7947 8.33591 31.3588 7.37853ZM57.1836 44.2712H1.84463C0.826396 44.2712 0 45.0976 0 46.1158C0 47.1341 0.826396 47.9605 1.84463 47.9605H57.1836C58.2019 47.9605 59.0283 47.1341 59.0283 46.1158C59.0283 45.0976 58.2019 44.2712 57.1836 44.2712Z" fill="var(--fill-0, white)"/>
</g>
</svg>
