<svg preserveAspectRatio="none" width="100%" height="100%" overflow="visible" style="display: block;" viewBox="0 0 49 61" fill="none" xmlns="http://www.w3.org/2000/svg">
<path id="Vector" d="M42.406 0H10.8853C9.13731 0.00195183 7.46146 0.697687 6.22532 1.93461C4.98917 3.17153 4.29366 4.84864 4.29131 6.5981V7.09607C4.29131 8.54284 3.11848 9.71568 1.67171 9.71568C1.22835 9.71568 0.80314 9.89195 0.489633 10.2057C0.176126 10.5195 0 10.9451 0 11.3888C0 11.8326 0.176126 12.2581 0.489633 12.5719C0.80314 12.8857 1.22835 13.0619 1.67171 13.0619C3.11848 13.0619 4.29131 14.2348 4.29131 15.6815V26.2073C4.29131 27.654 3.11848 28.8269 1.67171 28.8269C1.22835 28.8269 0.80314 29.0031 0.489633 29.3169C0.176126 29.6307 0 30.0563 0 30.5C0 30.9437 0.176126 31.3693 0.489633 31.6831C0.80314 31.9969 1.22835 32.1731 1.67171 32.1731C3.11848 32.1731 4.29131 33.346 4.29131 34.7927V45.3185C4.29131 46.7652 3.11848 47.9381 1.67171 47.9381C1.22835 47.9381 0.80314 48.1143 0.489633 48.4281C0.176126 48.7419 0 49.1674 0 49.6112C0 50.0549 0.176126 50.4805 0.489633 50.7943C0.80314 51.108 1.22835 51.2843 1.67171 51.2843C3.11848 51.2843 4.29131 52.4572 4.29131 53.9039V54.4019C4.29366 56.1514 4.98917 57.8285 6.22532 59.0654C7.46146 60.3023 9.13731 60.998 10.8853 61H42.406C44.154 60.998 45.8299 60.3023 47.066 59.0654C48.3021 57.8285 48.9977 56.1514 49 54.4019V6.5981C48.9977 4.84864 48.3021 3.17153 47.066 1.93461C45.8299 0.697687 44.154 0.00195183 42.406 0ZM45.6625 54.4019C45.6598 55.2619 45.3172 56.086 44.7096 56.6941C44.1019 57.3023 43.2786 57.6451 42.4193 57.6478H10.8853C10.026 57.6451 9.20264 57.3023 8.59502 56.6941C7.98739 56.086 7.64483 55.2619 7.64211 54.4019V53.9039C7.64211 52.4572 8.81494 51.2843 10.2617 51.2843C10.7051 51.2843 11.1303 51.108 11.4438 50.7943C11.7573 50.4805 11.9334 50.0549 11.9334 49.6112C11.9334 49.1674 11.7573 48.7419 11.4438 48.4281C11.1303 48.1143 10.7051 47.9381 10.2617 47.9381C8.80762 47.9381 7.62884 46.7593 7.62884 45.3052V34.7927C7.62884 33.346 8.80168 32.1731 10.2484 32.1731C10.6918 32.1731 11.117 31.9969 11.4305 31.6831C11.744 31.3693 11.9202 30.9437 11.9202 30.5C11.9202 30.0563 11.744 29.6307 11.4305 29.3169C11.117 29.0031 10.6918 28.8269 10.2484 28.8269C8.80168 28.8269 7.62884 27.654 7.62884 26.2073V15.6815C7.62884 14.2348 8.80168 13.0619 10.2484 13.0619C10.6918 13.0619 11.117 12.8857 11.4305 12.5719C11.744 12.2581 11.9202 11.8326 11.9202 11.3888C11.9202 10.9451 11.744 10.5195 11.4305 10.2057C11.117 9.89195 10.6918 9.71568 10.2484 9.71568C8.80168 9.71568 7.62884 8.54284 7.62884 7.09607V6.5981C7.63156 5.73807 7.97413 4.91403 8.58175 4.30589C9.18938 3.69775 10.0127 3.35489 10.872 3.35217H42.406C43.2653 3.35489 44.0887 3.69775 44.6963 4.30589C45.3039 4.91403 45.6465 5.73807 45.6492 6.5981L45.6625 54.4019Z" fill="var(--fill-0, white)"/>
</svg>
