<svg preserveAspectRatio="none" width="100%" height="100%" overflow="visible" style="display: block;" viewBox="0 0 65.6202 65.6949" fill="none" xmlns="http://www.w3.org/2000/svg">
<g id="Group">
<g id="Path">
</g>
<path id="&#240;&#159;&#148;&#185;-Icon-Color" fill-rule="evenodd" clip-rule="evenodd" d="M22.1467 36.5157L29.8845 28.7692L12.9599 11.8527C11.6475 10.5388 9.37814 10.8947 8.55788 12.5918C6.61662 16.6704 7.3275 21.6796 10.6905 25.0738L22.1467 36.5157ZM40.6845 31.5612C44.8678 33.5047 50.7462 32.136 55.0936 27.7838C60.3159 22.5555 61.3275 15.0554 57.3083 11.0316C53.3164 7.03512 45.8247 8.02054 40.5751 13.2488C36.2278 17.601 34.8607 23.4862 36.8019 27.6743L12.0303 52.4741C10.964 53.5416 10.964 55.2661 12.0303 56.3337C13.0966 57.4012 14.8191 57.4012 15.8855 56.3337L32.81 39.4446L49.7072 56.361C50.7736 57.4286 52.4961 57.4286 53.5624 56.361C54.6288 55.2935 54.6288 53.569 53.5624 52.5015L36.6652 35.585L40.6845 31.5612Z" fill="var(--fill-0, white)"/>
</g>
</svg>
