<svg preserveAspectRatio="none" width="100%" height="100%" overflow="visible" style="display: block;" viewBox="0 0 29.1556 29.1556" fill="none" xmlns="http://www.w3.org/2000/svg">
<g id="Group 32">
<path id="Vector" d="M8.74667 23.3244C7.14311 23.3244 5.84569 24.6364 5.84569 26.24C5.84569 27.8436 7.14311 29.1556 8.74667 29.1556C10.3502 29.1556 11.6622 27.8436 11.6622 26.24C11.6622 24.6364 10.3502 23.3244 8.74667 23.3244ZM0 0V2.91556H2.91556L8.16356 13.9801L6.19556 17.5516C5.96231 17.9598 5.83111 18.4409 5.83111 18.9511C5.83111 20.5547 7.14311 21.8667 8.74667 21.8667H26.24V18.9511H9.35893C9.15484 18.9511 8.99449 18.7908 8.99449 18.5867L9.03822 18.4117L10.3502 16.0356H21.2107C22.304 16.0356 23.2661 15.4379 23.7618 14.534L28.9806 5.07307C29.0972 4.86898 29.1556 4.62116 29.1556 4.37333C29.1556 3.57156 28.4996 2.91556 27.6978 2.91556H6.13724L4.76693 0H0ZM23.3244 23.3244C21.7209 23.3244 20.4235 24.6364 20.4235 26.24C20.4235 27.8436 21.7209 29.1556 23.3244 29.1556C24.928 29.1556 26.24 27.8436 26.24 26.24C26.24 24.6364 24.928 23.3244 23.3244 23.3244Z" fill="var(--fill-0, #D9D9D9)"/>
</g>
</svg>
